<?xml version="1.0" standalone="no"?>
<!DOCTYPE svg PUBLIC "-//W3C//DTD SVG 20010904//EN"
 "http://www.w3.org/TR/2001/REC-SVG-20010904/DTD/svg10.dtd">
<svg version="1.0" xmlns="http://www.w3.org/2000/svg"
 width="150.000000pt" height="150.000000pt" viewBox="0 0 150.000000 150.000000"
 preserveAspectRatio="xMidYMid meet">
<metadata>
Created by potrace 1.16, written by Peter Selinger 2001-2019
</metadata>
<g transform="translate(0.000000,150.000000) scale(0.100000,-0.100000)"
fill="#000000" stroke="none">
<path d="M0 750 l0 -750 750 0 750 0 0 750 0 750 -750 0 -750 0 0 -750z m1057
348 l-49 -41 51 -51 c49 -50 51 -54 51 -107 0 -46 -4 -59 -25 -79 -23 -22 -25
-30 -25 -124 l0 -101 -77 -77 -78 -78 -155 0 -155 0 -77 77 -78 78 0 106 c0
100 -1 107 -25 129 -21 20 -24 30 -21 72 3 40 11 57 52 104 l48 57 -42 36
c-23 20 -42 40 -42 45 0 5 24 -12 54 -38 l54 -46 95 0 94 0 18 -40 c10 -22 21
-40 24 -40 3 0 15 18 25 40 l19 40 93 0 93 0 53 49 c34 32 57 46 63 40 6 -6
-7 -24 -38 -51z"/>
<path d="M457 992 c-42 -43 -47 -52 -47 -93 0 -40 5 -49 48 -92 l48 -48 95 3
94 3 20 37 20 37 -30 31 c-36 38 -45 38 -45 0 l0 -30 -60 0 -60 0 0 60 c0 57
1 60 25 60 14 0 25 3 25 8 0 7 -74 72 -82 72 -2 0 -25 -22 -51 -48z"/>
<path d="M560 1032 c0 -4 43 -44 95 -90 l94 -82 93 82 c51 44 94 85 96 90 2 4
-26 8 -62 8 l-66 0 -32 -56 -31 -57 -29 57 -28 56 -65 0 c-36 0 -65 -3 -65 -8z"/>
<path d="M943 1000 c-40 -36 -40 -40 -8 -40 24 0 25 -3 25 -60 l0 -60 -60 0
-60 0 0 30 c0 37 -9 38 -44 1 l-28 -29 21 -41 21 -41 90 0 90 0 50 53 c68 72
69 104 2 170 -26 26 -52 47 -57 47 -6 0 -25 -14 -42 -30z"/>
<path d="M510 647 l0 -93 48 -47 48 -47 140 0 140 0 47 48 47 48 0 89 0 90
-88 0 -87 0 -25 -47 c-14 -27 -27 -48 -30 -48 -3 0 -16 21 -30 48 l-25 47 -92
3 -93 3 0 -94z"/>
</g>
</svg>
